# xmcd CD database file
#
# Track frame offsets:
#	150
#	13830
#	33147
#	46910
#	64365
#	81720
#	97420
#	113300
#	130535
#	145587
#	160530
#	176280
#	190455
#	207222
#
# Disc length: 2942 seconds
#
# Revision: 0
# Processed by: cddbd v1.5.2PL0 Copyright (c) Steve Scherf et al.
# Submitted via: CDex 1.70beta2
#
DISCID=b70b7c0e
DTITLE=Gino e Geno - Nóis Enverga Mais Não Quebra
DYEAR=2008
DGENRE=Sertanejo
TTITLE0=Que Bicho Que É
TTITLE1=Apaixonado Por Você
TTITLE2=O Que Eu Tô Fazendo Aqui
TTITLE3=Acidente de Amor
TTITLE4=A Saudade Tá Pegando
TTITLE5=Saudade Cigana
TTITLE6=Macaco Velho
TTITLE7=O Gavião
TTITLE8=Pôr Pra Dentro
TTITLE9=Noite Bela
TTITLE10=Bebo Pra Carái
TTITLE11=Cara de Boi
TTITLE12=Eu Já Fui de Você
TTITLE13=Nóis Enverga Mais Não Quebra
EXTD=YEAR: 2008
EXTT0=
EXTT1=
EXTT2=
EXTT3=
EXTT4=
EXTT5=
EXTT6=
EXTT7=
EXTT8=
EXTT9=
EXTT10=
EXTT11=
EXTT12=
EXTT13=
PLAYORDER=
